# xmcd
#
# Track frame offsets:
#	150
#	14245
#	27328
#	52545
#	67923
#	90122
#	130383
#	154323
#	173507
#	193780
#	234822
#	268433
#	283557
#
# Disc length: 4493 seconds
#
# Revision: 2
# Processed by: cddbd v1.5.2PL0 Copyright (c) Steve Scherf et al.
# Submitted via: EZCDAudioConverter 1.3.4.1
#
DISCID=a7118b0d
DTITLE=James Brown - Motherlode
DYEAR=2003
DGENRE=
TTITLE0=There It Is [Live]
TTITLE1=She's The One
TTITLE2=Since You Been Gone
TTITLE3=Untitled Instrumental
TTITLE4=Say It Loud (Say It Live)
TTITLE5=Can I Get Some Help [Unedited]
TTITLE6=You Got To Have A Mother For Me
TTITLE7=Funk Bomb [Instrumental]
TTITLE8=Baby Here I Come
TTITLE9=People Get Up And Drive Your Funky Soul [Remix]
TTITLE10=I Got Ants In My Pants (And I Want To Dance) [Remix]
TTITLE11=You've Changed
TTITLE12=Bodyheat [Alternate Mix]
EXTD=
EXTT0=
EXTT1=
EXTT2=
EXTT3=
EXTT4=
EXTT5=
EXTT6=
EXTT7=
EXTT8=
EXTT9=
EXTT10=
EXTT11=
EXTT12=
PLAYORDER=
